<svg id="Capa_1" data-name="Capa 1" xmlns="http://www.w3.org/2000/svg" xmlns:xlink="http://www.w3.org/1999/xlink" viewBox="0 0 99.83 157.9"><defs><clipPath id="clip-path"><path d="M52.25,93.85s-.9,66,18.93,64c4.73-.47,15.38-4.09,15.38-4.09s9.39-9.7-20.69-65.12C65.87,88.65,52.9,96.73,52.25,93.85Z" fill="#575756"/></clipPath><clipPath id="clip-path-2"><path d="M77.81,101.87a4.67,4.67,0,0,1-3.48,5.6l-20,4.64a4.66,4.66,0,0,1-5.59-3.49h0A4.65,4.65,0,0,1,52.25,103l20-4.64a4.66,4.66,0,0,1,5.59,3.48Z" fill="#b2b2b2"/></clipPath><clipPath id="clip-path-3"><path d="M91.83,8.48Q84.07-3.42,54.32,1.37q-33.37,6.81-48.23,16Q-2.2,22.16.8,38.54,3.25,53.74,15.38,79.9q9.51,20,14.52,22.67,7,4,26.15.69Q72,99.93,77.81,97.87q8.85-3.54,12.4-8.78Q103.7,63,98.28,29.49,96.09,16,91.83,8.48ZM70.29,75.25A10,10,0,0,1,65.49,80,61.77,61.77,0,0,1,57,82.45q-7.7,1.3-10.61-1.19-2.07-1.73-8.49-16.45-11.68-30.14-7.19-34,6.75-6,22.56-7.63,12.24-.91,15.3,5.22a56,56,0,0,1,3.16,12.36Q74.91,60.47,70.29,75.25Z" fill="#00a3a6"/></clipPath></defs><path d="M31.38,17.14s-14.16.71-11.33,21.25,12.75,51,24.08,52.42,32.59-1.42,36.13-9.92S83.09,30.6,83.09,30.6,66.09-7.65,31.38,17.14Z" fill="#fff"/><path d="M52.25,93.85s-.9,66,18.93,64c4.73-.47,15.38-4.09,15.38-4.09s9.39-9.7-20.69-65.12C65.87,88.65,52.9,96.73,52.25,93.85Z" fill="#575756"/><g clip-path="url(#clip-path)"><path d="M61.09,106.93s2.46,39.06,9.17,43.29,19.89-.8,19.41-15.9,4,35.66,3.79,37.62S61.74,188.2,58.68,187.1s-23.09-30.81-26.27-34.69S30.59,119,29.52,117.66,61.09,106.93,61.09,106.93Z" fill="#3c3c3b"/><path d="M79.53,104.79l-5.2,2.68S87.79,141.27,86,147.82a19.82,19.82,0,0,0,3.6-8.36C90.45,134.4,79.53,104.79,79.53,104.79Z" fill="#9d9d9c"/></g><path d="M77.81,101.87a4.67,4.67,0,0,1-3.48,5.6l-20,4.64a4.66,4.66,0,0,1-5.59-3.49h0A4.65,4.65,0,0,1,52.25,103l20-4.64a4.66,4.66,0,0,1,5.59,3.48Z" fill="#b2b2b2"/><g clip-path="url(#clip-path-2)"><path d="M45.4,105.37s23.81,3.55,36.2-9.48S47.9,92.15,45.4,105.37Z" fill="#9d9d9c"/><path d="M45.52,108.15s-1.6,8.16,5.54,8.08,30.59-8.85,30.59-8.85l.89-5.06s-3.25.87-9,3.07S49,113.25,45.52,108.15Z" fill="#878787"/></g><path d="M40.39,57.75a4.24,4.24,0,0,0,.71,1.7c.1.2.92,1.74,1,1.94a5.21,5.21,0,0,0,1.76,2.4c.42.37.9.66,1.34,1.09a9,9,0,0,0,1,1,12.82,12.82,0,0,0,2.33,1.44,11.38,11.38,0,0,0,2.12.54c.68.18,1.29.37,2,.48a8.86,8.86,0,0,0,3.5.1c.35-.06,3.78-.82,3.72-.81.61-.25,1.07-.54,1.62-.77a10.37,10.37,0,0,0,2.3-1c.32-.27.63-.61.95-.88.36-.42.84-.64,1.21-1.06s.68-1.2,1.09-1.77c.3-.41.61-.75.9-1.16a5.93,5.93,0,0,0,.7-1.13c.2-.54.79-2.74.89-3,.07-.45.29-2.73.43-3.19a7.38,7.38,0,0,0,0-2.46c0-.29-.29-1.41-.34-1.69s-.08-1-.12-1.22l-.29-1.84a3.49,3.49,0,0,0-.21-.83c-.26-.76-.68-1.56-1-2.31-.23-.54-.46-1.09-.71-1.7a14.31,14.31,0,0,0-3.25-4c-.34-.31-1.61-1.41-1.79-1.6s-.69-.25-1-.42a6.22,6.22,0,0,0-.82-.6,2.54,2.54,0,0,0-.68-.18,10.79,10.79,0,0,1-1.18-.61,25,25,0,0,0-3-.32,18.13,18.13,0,0,0-3.3.24,15.7,15.7,0,0,0-1.67.42l-1,.15a4.47,4.47,0,0,0-1.32.36c-.68.25-1.31.86-2,1.19a18.25,18.25,0,0,0-1.74.93,11.72,11.72,0,0,0-2.17,2.3,6.67,6.67,0,0,0-1,1.68c-.16.39-.45.8-.61,1.19-.11.23-1,3.14-1.1,3.58-.07.89,0,1.67,0,2.48a14.92,14.92,0,0,0-.15,1.76,9.39,9.39,0,0,0,.22,1.85l.12.71a12.84,12.84,0,0,0,0,2.32c0,.21.46,1.52.51,1.81Z" fill="#1d1d1b"/><path d="M49.9,47.07a2.15,2.15,0,0,0,.37.87c0,.1.47.9.53,1a2.68,2.68,0,0,0,.9,1.24c.22.19.47.34.69.56s.28.37.5.52a6.35,6.35,0,0,0,1.2.74,6.47,6.47,0,0,0,1.09.28c.35.09.67.19,1,.25a5,5,0,0,0,1.81,0l1.91-.42c.31-.13.55-.28.83-.4a5.19,5.19,0,0,0,1.19-.52c.16-.14.32-.31.49-.46s.43-.32.62-.54.35-.62.57-.92.31-.38.46-.59a2.63,2.63,0,0,0,.35-.58c.11-.28.42-1.41.46-1.57s.15-1.41.23-1.64a4,4,0,0,0,0-1.27c0-.15-.16-.72-.18-.87s0-.52-.07-.63l-.14-.94a1.94,1.94,0,0,0-.11-.43c-.14-.4-.36-.81-.53-1.19s-.24-.56-.36-.88A7.58,7.58,0,0,0,62,36.64c-.18-.15-.83-.72-.92-.82s-.35-.13-.52-.22a3.47,3.47,0,0,0-.42-.3,1.24,1.24,0,0,0-.35-.1c-.24-.07-.41-.23-.62-.31a10.45,10.45,0,0,0-1.55-.16,8.73,8.73,0,0,0-1.7.12c-.11,0-.72.15-.87.21l-.5.08a2.3,2.3,0,0,0-.68.19c-.36.13-.68.44-1,.61a8.54,8.54,0,0,0-.89.48,5.88,5.88,0,0,0-1.12,1.18,3.41,3.41,0,0,0-.5.87c-.08.2-.23.41-.32.61s-.52,1.62-.56,1.85c0,.45,0,.86,0,1.27a7,7,0,0,0-.08.91,4.57,4.57,0,0,0,.12,1l0,.37a6.75,6.75,0,0,0,0,1.19c0,.11.24.79.26.93Z" fill="#fff"/><path d="M91.83,8.48Q84.07-3.42,54.32,1.37q-33.37,6.81-48.23,16Q-2.2,22.16.8,38.54,3.25,53.74,15.38,79.9q9.51,20,14.52,22.67,7,4,26.15.69Q72,99.93,77.81,97.87q8.85-3.54,12.4-8.78Q103.7,63,98.28,29.49,96.09,16,91.83,8.48ZM70.29,75.25A10,10,0,0,1,65.49,80,61.77,61.77,0,0,1,57,82.45q-7.7,1.3-10.61-1.19-2.07-1.73-8.49-16.45-11.68-30.14-7.19-34,6.75-6,22.56-7.63,12.24-.91,15.3,5.22a56,56,0,0,1,3.16,12.36Q74.91,60.47,70.29,75.25Z" fill="#00a3a6"/><g clip-path="url(#clip-path-3)"><path d="M31.85,33.74S27,32.37,30.21,27.92,51.82,15.54,69,20c0,0,3.86,4,5,13.5s8.63,51.87-15.59,47.87S31.85,33.74,31.85,33.74Z" fill="#377279"/><path d="M-2.07,22.71S-3.59,49,9.49,79.48s37.66,41.16,55.8,36.12a268.27,268.27,0,0,0,33.15-11.72L101.54,92s.77-10.85.29-9.34-27.09,16.11-47.58,17.6S24.76,94.55,14.11,65.87-2.32,25.61.29,17.33Z" fill="#377279"/><path d="M83.16,5.9C88.53,9.16,93.62,20,93.89,39.56c0,0-3.78-23.69-11.17-29.67S50.54,7.53,45.31,8.36C45.31,8.36,74.57.68,83.16,5.9Z" fill="#fff" opacity="0.4"/></g></svg>