<svg width="258" height="126" viewBox="0 0 258 126" fill="none" xmlns="http://www.w3.org/2000/svg">
<path d="M50.315 34.1355C105.814 30.2868 217.311 22.0877 218.812 22.5896H221.811H225.811H227.811C249.313 25.0996 258.145 43.8406 257.811 52.7092L256.811 96.8845C250.411 119.374 233.812 125.665 226.312 126L31.3153 120.98C5.81578 112.948 0.815887 91.8645 0.315887 90.3586C-0.184113 88.8526 -0.0174561 74.2948 0.315887 66.7649C2.71584 47.89 21.6488 38.4861 30.8153 36.1434C28.8154 24.0956 36.3152 9.53803 39.8145 6.5259C43.3138 3.51376 51.3143 0 52.8149 0C54.3156 0 55.8149 1.50598 54.8149 2.50996L51.815 5.52191C47.815 9.53785 47.315 15.5618 47.315 19.5777C47.315 23.6249 48.9817 30.7888 50.315 34.1355Z" fill="white"/>
</svg>
