<svg width="258" height="126" viewBox="0 0 258 126" fill="none" xmlns="http://www.w3.org/2000/svg">
<path d="M207.509 34C152.009 30.1667 40.5098 22 39.0091 22.5H36.0098H32.0098H30.0098C8.50715 25 -0.324261 43.6667 0.00907233 52.5L1.00907 96.5C7.40907 118.9 24.0091 125.167 31.5091 125.5L226.509 120.5C252.009 112.5 257.009 91.5 257.509 90C258.009 88.5 257.842 74 257.509 66.5C255.109 47.7 236.176 38.3333 227.009 36C229.009 24 221.509 9.50019 218.01 6.5C214.51 3.49982 206.51 0 205.009 0C203.508 0 202.009 1.5 203.009 2.5L206.009 5.5C210.009 9.5 210.509 15.5 210.509 19.5C210.509 23.5311 208.842 30.6667 207.509 34Z" fill="white"/>
</svg>
